<svg fill="#99A1AF" viewBox="0 0 32 32" version="1.1" xmlns="http://www.w3.org/2000/svg"><g id="SVGRepo_bgCarrier" stroke-width="0"></g><g id="SVGRepo_tracerCarrier" stroke-linecap="round" stroke-linejoin="round"></g><g id="SVGRepo_iconCarrier"> <title>plug</title> <path d="M29 8.75h-4.757l0.017-6.747c0-0.001 0-0.002 0-0.003 0-0.689-0.557-1.248-1.246-1.25h-0.004c0 0 0 0 0 0-0.689 0-1.248 0.558-1.25 1.247v0l-0.017 6.753h-11.454l0.050-6.73c0-0.003 0-0.006 0-0.009 0-0.687-0.554-1.245-1.24-1.25h-0.010c-0 0-0 0-0 0-0.687 0-1.244 0.554-1.25 1.24v0l-0.050 6.75h-4.789c-0.69 0-1.25 0.56-1.25 1.25s0.56 1.25 1.25 1.25v0h1.826c0 0.001 0 0.002 0 0.004 0 4.009 1.229 7.73 3.331 10.809l-0.043-0.066c1.54 2.177 3.876 3.702 6.577 4.153l0.059 0.008v3.843c0 0.69 0.56 1.25 1.25 1.25s1.25-0.56 1.25-1.25v0-3.846c2.748-0.461 5.076-1.979 6.592-4.113l0.021-0.031c2.070-3.015 3.307-6.743 3.31-10.759v-0.001h1.827c0.69 0 1.25-0.56 1.25-1.25s-0.56-1.25-1.25-1.25v0zM15.993 23.75h-0.005c-2.442-0.086-4.573-1.344-5.857-3.226l-0.016-0.026c-1.75-2.597-2.793-5.797-2.793-9.24 0-0.003 0-0.006 0-0.008v0h17.389c-0.388 8.57-4.694 12.5-8.718 12.5z"></path> </g></svg>